<svg xmlns="http://www.w3.org/2000/svg" width="24" height="24">
  <path fill="#bdc3c7" d="M5 4c-1.105 0-2 .9-2 2v14c0 1.1.895 2 2 2h14c1.105 0 2-.9 2-2V6c0-1.1-.895-2-2-2H5z"/>
  <path fill="#ecf0f1" d="M5 3c-1.105 0-2 .895-2 2v14c0 1.105.895 2 2 2h14c1.105 0 2-.895 2-2V5c0-1.105-.895-2-2-2H5z"/>
  <path fill="#e74c3c" d="M5 3c-1.105 0-2 .895-2 2v4h18V5c0-1.105-.895-2-2-2H5z"/>
  <path fill="#c0392b" d="M7.5 5.5a1.5 1.5 0 1 1-3 0 1.5 1.5 0 1 1 3 0z"/>
  <path fill="#bdc3c7" d="M6 1c-.552 0-1 .448-1 1v3c0 .552.448 1 1 1s1-.448 1-1V2c0-.552-.448-1-1-1z"/>
  <path fill="#c0392b" d="M19.5 5.5a1.5 1.5 0 1 1-3 0 1.5 1.5 0 1 1 3 0z"/>
  <path fill="#bdc3c7" d="M18 1c-.552 0-1 .4-1 1v3c0 .5.448 1 1 1s1-.5 1-1V2c0-.6-.448-1-1-1zM5 11v2h2v-2H5zm3 0v2h2v-2H8zm3 0v2h2v-2h-2zm3 0v2h2v-2h-2zm3 0v2h2v-2h-2zM5 14v2h2v-2H5zm3 0v2h2v-2H8zm3 0v2h2v-2h-2zm3 0v2h2v-2h-2zm3 0v2h2v-2h-2zM5 17v2h2v-2H5zm3 0v2h2v-2H8zm3 0v2h2v-2h-2zm3 0v2h2v-2h-2zm3 0v2h2v-2h-2z"/>
  <path fill="#34495e" d="M23.453 18.55a4.95 4.95 0 1 1-9.9 0 4.95 4.95 0 1 1 9.9 0z"/>
  <path fill="#bdc3c7" d="M18.5 14c-.276 0-.5.224-.5.5v4c0 .276.224.5.5.5h3c.276 0 .5-.224.5-.5s-.224-.5-.5-.5H19v-3.5c0-.276-.224-.5-.5-.5z"/>
  <path fill="#7f8c8d" d="M18.5 13c-3.038 0-5.5 2.4-5.5 5.5 0 3 2.462 5.5 5.5 5.5s5.5-2.5 5.5-5.5c0-3.1-2.462-5.5-5.5-5.5zm0 1c2.485 0 4.5 2 4.5 4.5 0 2.4-2.015 4.5-4.5 4.5S14 20.9 14 18.5c0-2.5 2.015-4.5 4.5-4.5z"/>
  <path fill="#95a5a6" d="M19 18.5c0 .276-.224.5-.5.5s-.5-.224-.5-.5.224-.5.5-.5.5.224.5.5z"/>
</svg>
